# xmcd CD database file
#
# Track frame offsets:
#	150
#	40895
#	60804
#	91113
#	120194
#	131251
#	156649
#	194444
#	214043
#	224067
#	241182
#	264879
#	287417
#	304758
#	320493
#
# Disc length: 4435 seconds
#
# Revision: 0
# Processed by: cddbd v1.5.1PL0 Copyright (c) Steve Scherf et al.
# Submitted via: CDex 1.51
#
DISCID=cb11510f
DTITLE=Chris Beard - Live Wire
DYEAR=2005
DGENRE=Blues
TTITLE0=Born to play blues
TTITLE1=Ten toes up
TTITLE2=It's about time
TTITLE3=Tribute to Luther Allison part 1
TTITLE4=Tribute to Luther Allison part 2
TTITLE5=Caught up
TTITLE6=It's over part 1
TTITLE7=It's over part 2
TTITLE8=It's over part 3
TTITLE9=Street of broken dreams 
TTITLE10=Never felt no blues
TTITLE11=A change must come
TTITLE12=Can't walk away
TTITLE13=Lock my dreams
TTITLE14=Who can you trust
EXTD=YEAR: 2005
EXTT0=
EXTT1=
EXTT2=
EXTT3=
EXTT4=
EXTT5=
EXTT6=
EXTT7=
EXTT8=
EXTT9=
EXTT10=
EXTT11=
EXTT12=
EXTT13=
EXTT14=
PLAYORDER=
